<svg width="212" height="70" fill="none" xmlns="http://www.w3.org/2000/svg"><path fill-rule="evenodd" clip-rule="evenodd" d="m24 44.63 17.107 9.877 17.107-9.875V24.877L41.107 15 24 24.877V44.63Zm31.462-18.165v16.577L41.105 51.33 26.75 43.041V26.465l14.357-8.287 14.356 8.287Z" fill="#762B8A"/><path d="M43.815 43.882v-2.77l8.887-5.169v-2.75l-8.887 5.118v-2.753l8.898-5.115-.002-2.388-11.604-6.701-11.605 6.701v13.399l11.605 6.7 11.605-6.704V38.7l-8.897 5.182Z" fill="url(#a)"/><path d="M78.918 41.18H65.524V28.674h12.955v2.751h-9.981v1.886h6.94v2.744h-6.939v2.372h10.419v2.751ZM82.911 28.675V41.18h2.974V31.92l7.55 9.26h3.934V28.674h-2.977v9.27l-7.548-9.27h-3.933ZM100.893 28.675v2.748h5.652v9.756h2.975v-9.756h5.656v-2.748h-14.283ZM172.72 28.675v2.748h5.653v9.756h2.975v-9.756h5.656v-2.748H172.72Z" fill="#3F454F"/><path fill-rule="evenodd" clip-rule="evenodd" d="M131.843 29.781c-.804-.74-1.882-1.11-3.238-1.11v-.001h-9.9v12.504h2.977v-4.351h5.367l3.097 4.35h3.466l-3.295-4.62c1.82-.551 2.73-1.818 2.73-3.798 0-1.242-.402-2.234-1.204-2.974Zm-10.161 4.3V31.423h6.494c1.324 0 1.837.519 1.837 1.319 0 .708-.157 1.337-1.932 1.337h-6.399Z" fill="#3F454F"/><path d="M144.673 38.774c3.873 0 4.234-1.324 4.234-2.468v-7.629h2.974v8.272c0 2.96-3.173 4.569-7.206 4.569h.002c-4.035 0-7.206-1.61-7.206-4.57v-8.271h2.974v7.63c-.005 1.141.358 2.467 4.228 2.467ZM167.886 32.32l1.855-1.96c-2.514-2.003-5.699-1.944-6.576-2.001-.88-.057-6.779-.18-7.044 3.83-.179 2.72 2.418 3.61 6.594 3.715 4.177.103 4.351.829 4.346 1.285-.005.493-.534 1.592-4.271 1.531-2.425-.04-4.502-.888-5.622-1.837l-1.664 2.18c1.96 1.554 4.462 2.332 7.571 2.332 3.741 0 6.955-.971 7.124-4.031.197-3.558-3.435-3.98-6.751-4.253-3.202-.263-4.213-.349-4.202-1.14.01-.875 2.431-.989 4.104-.896 1.952.111 3.421.602 4.536 1.245Z" fill="#3F454F"/><defs><linearGradient id="a" x1="29.502" y1="21.355" x2="29.502" y2="48.154" gradientUnits="userSpaceOnUse"><stop offset=".2" stop-color="#C6168D"/><stop offset=".8" stop-color="#762B8A"/></linearGradient></defs></svg>
